<?xml version="1.0" encoding="UTF-8"?>
<svg id="NilgAI_Logo" xmlns="http://www.w3.org/2000/svg" version="1.1" viewBox="0 0 1080 457.41">
  <!-- Generator: Adobe Illustrator 29.4.0, SVG Export Plug-In . SVG Version: 2.1.0 Build 152)  -->
  <defs>
    <style>
      .st0 {
        fill: #0e3b43;
      }

      .st1 {
        fill: #202020;
      }
    </style>
  </defs>
  <path class="st0" d="M328.88,98.71h-37.94c33.22,90.39,12.64,190.23-54.67,251.21,36.47-73.67,31.07-168.57-21.73-246.3-1.12-1.67-2.26-3.3-3.42-4.92h-116.17c-7.17,0-13.04,5.87-13.04,13.04v233.93c0,7.17,5.87,13.04,13.04,13.04h26.61c1.13-1.57,2.24-3.16,3.32-4.78,52.55-77.38,57.93-171.85,21.63-245.17,66.98,60.68,87.47,160,54.47,249.95h127.9c7.17,0,13.04-5.87,13.04-13.04V111.74c0-7.17-5.87-13.04-13.04-13.04h0Z"/>
  <g>
    <path class="st1" d="M425.91,177.4v122.4h-20.25v-159.75h17.1l97.65,124.88v-124.65h20.25v159.52h-18.45l-96.3-122.4Z"/>
    <path class="st1" d="M569.01,160.3v-24.75h19.8v24.75h-19.8ZM569.01,299.8v-117.45h19.8v117.45h-19.8Z"/>
    <path class="st1" d="M614.46,135.55h19.8v134.49c0,6.48.9,10.47,2.7,11.98,1.8,1.51,3.97,2.26,6.53,2.26,3.15,0,6.15-.34,9-1.01,2.85-.67,5.25-1.39,7.2-2.14l3.15,16.2c-3.3,1.35-7.2,2.47-11.7,3.38-4.5.9-8.48,1.35-11.92,1.35-7.65,0-13.69-2.19-18.11-6.55-4.43-4.37-6.64-10.47-6.64-18.3v-141.65Z"/>
    <path class="st1" d="M718.41,302.05c-7.95,0-15.27-1.61-21.94-4.84-6.68-3.22-12.41-7.65-17.21-13.28-4.8-5.62-8.51-12.04-11.14-19.24-2.63-7.2-3.94-14.7-3.94-22.5,0-8.25,1.31-16.05,3.94-23.4,2.62-7.35,6.37-13.84,11.25-19.46,4.87-5.62,10.61-10.05,17.21-13.27,6.6-3.22,13.95-4.84,22.05-4.84,9.75,0,18.26,2.36,25.54,7.09,7.27,4.72,13.39,10.76,18.34,18.11v-23.4h17.55v115.63c0,11.05-2.67,20.39-7.99,28.01-5.33,7.62-12.53,13.41-21.6,17.37-9.08,3.96-19.16,5.94-30.26,5.94-13.2,0-24-2.33-32.4-6.97-8.4-4.65-15.38-10.95-20.92-18.9l11.47-10.12c4.65,6.9,10.69,12.07,18.11,15.53,7.42,3.45,15.33,5.17,23.74,5.17,7.2,0,13.84-1.28,19.91-3.83,6.08-2.56,10.95-6.46,14.62-11.71,3.67-5.26,5.51-11.85,5.51-19.78v-20.7c-4.35,7.2-10.31,12.9-17.89,17.1-7.58,4.2-15.56,6.3-23.96,6.3ZM724.48,285.85c4.2,0,8.25-.75,12.15-2.25,3.9-1.5,7.5-3.49,10.8-5.96,3.3-2.48,6.08-5.29,8.33-8.44,2.25-3.15,3.75-6.37,4.5-9.67v-33.75c-2.1-5.4-5.1-10.16-9-14.29-3.9-4.12-8.33-7.35-13.28-9.67-4.95-2.32-10.05-3.49-15.3-3.49-6,0-11.36,1.28-16.09,3.83-4.73,2.55-8.74,5.96-12.04,10.24-3.3,4.27-5.85,9.04-7.65,14.29-1.8,5.25-2.7,10.58-2.7,15.98,0,5.85,1.05,11.36,3.15,16.54,2.1,5.17,4.95,9.79,8.55,13.84,3.6,4.05,7.88,7.2,12.82,9.45,4.95,2.25,10.2,3.38,15.75,3.38Z"/>
    <path class="st1" d="M849.35,140.05h31.5l58.72,159.75h-31.95l-13.27-39.82h-58.66l-13.34,39.82h-31.95l58.95-159.75ZM887.08,238.15l-21.98-65.93-22.09,65.93h44.06Z"/>
    <path class="st1" d="M950.38,299.8v-159.75h31.05v159.75h-31.05Z"/>
  </g>
</svg>